# xmcd
#
# Track frame offsets:
#	150
#	16242
#	36872
#	62582
#	83477
#	105177
#	126792
#	141500
#	163167
#	184712
#
# Disc length: 2635 seconds
#
# Revision: 1
# Processed by: cddbd v1.5PL3 Copyright (c) Steve Scherf et al.
# Submitted via: CDex 1.50Beta5
#
DISCID=790a490a
DTITLE=14 Karat Soul - On The Road Again
DYEAR=1900
DGENRE=
TTITLE0=29 Ways
TTITLE1=Throught You Told Me
TTITLE2=空に星があるように
TTITLE3=A Song For My Father
TTITLE4=Girl I Want You To Be My Lady
TTITLE5=On My Knees And Pray
TTITLE6=I Wish That We Were Married
TTITLE7=On The Road Again
TTITLE8=Hurt Someone
TTITLE9=Farewell My Love
EXTD=
EXTT0=
EXTT1=
EXTT2=
EXTT3=
EXTT4=
EXTT5=
EXTT6=
EXTT7=
EXTT8=
EXTT9=
PLAYORDER=
